<?xml version="1.0" encoding="UTF-8" standalone="no"?>
<!-- Created with Inkscape (http://www.inkscape.org/) -->

<svg
   xmlns:dc="http://purl.org/dc/elements/1.1/"
   xmlns:cc="http://creativecommons.org/ns#"
   xmlns:rdf="http://www.w3.org/1999/02/22-rdf-syntax-ns#"
   xmlns:svg="http://www.w3.org/2000/svg"
   xmlns="http://www.w3.org/2000/svg"
   xmlns:xlink="http://www.w3.org/1999/xlink"
   xmlns:sodipodi="http://sodipodi.sourceforge.net/DTD/sodipodi-0.dtd"
   xmlns:inkscape="http://www.inkscape.org/namespaces/inkscape"
   version="1.1"
   id="svg4518"
   width="210mm"
   height="297mm"
   viewBox="0 0 793.70077 1122.5197"
   sodipodi:docname="IKEA.svg"
   inkscape:version="0.92.4 (5da689c313, 2019-01-14)">
  <metadata
     id="metadata4524">
    <rdf:RDF>
      <cc:Work
         rdf:about="">
        <dc:format>image/svg+xml</dc:format>
        <dc:type
           rdf:resource="http://purl.org/dc/dcmitype/StillImage" />
        <dc:title />
      </cc:Work>
    </rdf:RDF>
  </metadata>
  <defs
     id="defs4522" />
  <sodipodi:namedview
     pagecolor="#ffffff"
     bordercolor="#666666"
     borderopacity="1"
     objecttolerance="10"
     gridtolerance="10"
     guidetolerance="10"
     inkscape:pageopacity="0"
     inkscape:pageshadow="2"
     inkscape:window-width="1920"
     inkscape:window-height="1017"
     id="namedview4520"
     showgrid="false"
     units="mm"
     inkscape:zoom="0.79950206"
     inkscape:cx="124.22784"
     inkscape:cy="904.41016"
     inkscape:window-x="-8"
     inkscape:window-y="-8"
     inkscape:window-maximized="1"
     inkscape:current-layer="svg4518" />
  <g
     id="g4543"
     transform="translate(-121.48015,-1.059978)">
    <path
       sodipodi:nodetypes="ccccccccscscccc"
       inkscape:connector-curvature="0"
       id="path4528"
       d="m 483.0115,114.37549 c -15.58815,-0.55277 -20.7842,-7.02643 -20.7842,-7.02643 v 32.67501 l 8.01518,8.01519 h -37.53316 l 3.53773,-28.46772 c 0.20512,0.0205 -3.65953,1.4974 -6.08048,-0.33166 1.32551,-0.54486 3.65508,-3.5104 2.98496,-3.8694 0,0 -14.70371,-6.08049 -14.92482,-13.26651 -0.22111,-7.186028 17.68868,-13.819283 20.89475,-13.929837 0,0 -6.74381,-16.9148 -0.44221,-21.779187 6.30159,-4.864386 15.25648,-1.658313 20.01031,6.522701 0,0 -3.53773,0.884434 -4.64327,2.432193 l -0.11056,11.387088 c 0,0 8.40212,15.367042 28.63355,16.140922"
       style="fill:#ffffff;stroke:#000000;stroke-width:1.29999995;stroke-linecap:butt;stroke-linejoin:miter;stroke-miterlimit:4;stroke-dasharray:none;stroke-opacity:1" />
    <path
       inkscape:connector-curvature="0"
       id="path4530"
       d="m 482.23762,109.06889 c -1.43721,0 -4.42217,-0.77388 -4.42217,-0.77388"
       style="fill:none;stroke:#000000;stroke-width:1.29999995;stroke-linecap:butt;stroke-linejoin:miter;stroke-miterlimit:4;stroke-dasharray:none;stroke-opacity:1" />
    <path
       inkscape:connector-curvature="0"
       id="path4532"
       d="M 452.05631,147.98398 V 124.65703"
       style="fill:none;stroke:#000000;stroke-width:1.29999995;stroke-linecap:butt;stroke-linejoin:miter;stroke-miterlimit:4;stroke-dasharray:none;stroke-opacity:1" />
    <path
       inkscape:connector-curvature="0"
       id="path4534"
       d="m 453.93573,79.77201 c -5.41716,0.110554 -10.72376,-1.768868 -11.71875,-9.065448"
       style="fill:none;stroke:#000000;stroke-width:1.29999995;stroke-linecap:butt;stroke-linejoin:miter;stroke-miterlimit:4;stroke-dasharray:none;stroke-opacity:1" />
    <path
       sodipodi:nodetypes="cc"
       inkscape:connector-curvature="0"
       id="path4536"
       d="m 449.22492,70.810363 h 1.01625"
       style="fill:none;stroke:#000000;stroke-width:1.29999995;stroke-linecap:butt;stroke-linejoin:miter;stroke-miterlimit:4;stroke-dasharray:none;stroke-opacity:1" />
  </g>
  <g
     id="g4579"
     transform="translate(-570.74367,133.63052)">
    <rect
       y="63.071171"
       x="637.07623"
       height="3.2832935"
       width="5.9216547"
       id="rect4571"
       style="fill:#ffffff;stroke:#000000;stroke-width:1.29999995;stroke-miterlimit:4;stroke-dasharray:none" />
    <path
       sodipodi:nodetypes="cscccsccccccc"
       inkscape:connector-curvature="0"
       id="path4563"
       d="M 628.98524,94.770589 V 69.442324 c 0,-2.312805 -7.8763,-6.338786 -11.5697,5.706677 l -1.13859,0.156348 c 0.3515,-2.641275 0.81601,-7.119691 3.5132,-9.794434 2.55802,-2.465968 5.17974,-4.585867 9.74231,-5.214909 4.10438,-0.56587 6.72293,1.407126 6.72293,1.407126 l 1.87617,0.07817 v 5.784851 h -1.56347 c -0.0911,0.300712 -1.88162,0.382657 -2.9114,2.970598 v 24.78105 z"
       style="fill:#ffffff;stroke:#000000;stroke-width:1.29999995;stroke-linecap:butt;stroke-linejoin:miter;stroke-miterlimit:4;stroke-dasharray:none;stroke-opacity:1" />
    <path
       sodipodi:nodetypes="scsssscs"
       inkscape:connector-curvature="0"
       id="path4547"
       d="m 627.73446,95.474152 c 0,-4.143204 6.87928,-3.973164 6.87928,-0.07817 0,6.394138 0.23453,29.315118 0.23453,31.816678 0,2.50155 -0.54722,2.26703 -1.64165,2.26703 h -4.76859 c -1.56348,0 -1.08078,0.008 -1.08078,-1.87196 0,-1.88037 0.37721,-32.133574 0.37721,-32.133574 z"
       style="fill:#ffffff;stroke:#000000;stroke-width:1.29999995;stroke-linecap:butt;stroke-linejoin:miter;stroke-miterlimit:4;stroke-dasharray:none;stroke-opacity:1" />
    <rect
       y="61.806946"
       x="642.65186"
       height="5.8040977"
       width="3.9246757"
       id="rect4565"
       style="fill:#ffffff;stroke:#000000;stroke-width:1.29999995;stroke-miterlimit:4;stroke-dasharray:none" />
    <path
       inkscape:connector-curvature="0"
       id="path4567"
       d="m 629.10893,70.982947 h 4.47745"
       style="fill:#ffffff;stroke:#000000;stroke-width:1.29999995;stroke-linecap:butt;stroke-linejoin:miter;stroke-miterlimit:4;stroke-dasharray:none;stroke-opacity:1" />
    <path
       style="fill:#ffffff;stroke:#000000;stroke-width:1.29999995;stroke-linecap:butt;stroke-linejoin:miter;stroke-miterlimit:4;stroke-dasharray:none;stroke-opacity:1"
       d="m 629.10893,73.774442 h 4.47745"
       id="path4569"
       inkscape:connector-curvature="0" />
  </g>
  <g
     id="g4593"
     transform="translate(-505.01179,134.43396)">
    <rect
       y="75.349838"
       x="594.4502"
       height="43.447819"
       width="4.6432781"
       id="rect4581"
       style="fill:#ffffff;stroke:#000000;stroke-width:1.29999995;stroke-miterlimit:4;stroke-dasharray:none" />
    <path
       inkscape:connector-curvature="0"
       id="path4583"
       d="m 599.09344,118.79765 -2.43218,11.27654 -2.21106,-11.27654 z"
       style="fill:#ffffff;stroke:#000000;stroke-width:1.29999995;stroke-linecap:butt;stroke-linejoin:miter;stroke-miterlimit:4;stroke-dasharray:none;stroke-opacity:1" />
    <path
       inkscape:connector-curvature="0"
       id="path4585"
       d="m 595.66627,124.43592 h 2.37692 l -1.38193,5.63827 z"
       style="fill:#000000;stroke:#000000;stroke-width:1.29999995;stroke-linecap:butt;stroke-linejoin:miter;stroke-miterlimit:4;stroke-dasharray:none;stroke-opacity:1" />
    <path
       inkscape:connector-curvature="0"
       id="path4587"
       d="m 594.78184,78.113696 h 4.03523"
       style="fill:none;stroke:#000000;stroke-width:1.29999995;stroke-linecap:butt;stroke-linejoin:miter;stroke-miterlimit:4;stroke-dasharray:none;stroke-opacity:1" />
  </g>
  <g
     id="g4610"
     transform="translate(-446.76025,297.95155)">
    <path
       inkscape:connector-curvature="0"
       id="path4597"
       d="m 560.3447,-70.630292 v 28.191337 h 2.87441 v -28.965217 z"
       style="fill:#ffffff;stroke:#000000;stroke-width:1.29999995;stroke-linecap:butt;stroke-linejoin:miter;stroke-miterlimit:4;stroke-dasharray:none;stroke-opacity:1" />
    <ellipse
       ry="3.4824588"
       rx="5.1960497"
       cy="-35.18763"
       cx="561.4502"
       id="path4599"
       style="fill:#ffffff;stroke:#000000;stroke-width:1.29999995;stroke-miterlimit:4;stroke-dasharray:none" />
    <path
       inkscape:connector-curvature="0"
       id="path4601"
       d="m 557.58085,-33.031825 c 0.55277,-0.22111 5.3066,-5.0855 5.3066,-5.0855"
       style="fill:#ffffff;stroke:#000000;stroke-width:1.29999995;stroke-linecap:butt;stroke-linejoin:miter;stroke-miterlimit:4;stroke-dasharray:none;stroke-opacity:1" />
    <path
       inkscape:connector-curvature="0"
       id="path4603"
       d="m 559.68138,-32.368495 5.41716,-5.0855"
       style="fill:#ffffff;stroke:#000000;stroke-width:1.29999995;stroke-linecap:butt;stroke-linejoin:miter;stroke-miterlimit:4;stroke-dasharray:none;stroke-opacity:1" />
    <path
       inkscape:connector-curvature="0"
       id="path4595"
       d="m 564.76687,-71.404172 -0.11055,-11.829304 c 0,0 3.09552,-0.994989 3.09552,-9.397111 0,-8.402123 -5.30661,-9.065453 -6.19104,-9.065453 -0.88443,0 -5.85937,0.88444 -5.85937,9.618224 0,8.733785 3.42718,9.065448 3.42718,9.065448 0,0 0,7.738797 0,9.949882 0,2.211085 0.99499,2.874411 2.87441,2.874411 1.87942,0 2.43761,0.0015 2.76385,-1.216097 z"
       style="fill:#ffffff;stroke:#000000;stroke-width:1.29999995;stroke-linecap:butt;stroke-linejoin:miter;stroke-miterlimit:4;stroke-dasharray:none;stroke-opacity:1" />
  </g>
  <g
     id="g5073"
     transform="translate(-436.91038,297.16981)">
    <path
       style="fill:#ffffff;stroke:#000000;stroke-width:1.29999995;stroke-linecap:butt;stroke-linejoin:miter;stroke-miterlimit:4;stroke-dasharray:none;stroke-opacity:1"
       d="m 574.25961,-69.848555 v 28.191337 h 2.87441 v -28.965217 z"
       id="path4612"
       inkscape:connector-curvature="0" />
    <ellipse
       style="fill:#ffffff;stroke:#000000;stroke-width:1.29999995;stroke-miterlimit:4;stroke-dasharray:none"
       id="ellipse4614"
       cx="575.36511"
       cy="-34.405891"
       rx="5.1960497"
       ry="3.4824588" />
    <path
       style="fill:#ffffff;stroke:#000000;stroke-width:1.29999995;stroke-linecap:butt;stroke-linejoin:miter;stroke-miterlimit:4;stroke-dasharray:none;stroke-opacity:1"
       d="m 572.76714,-32.581751 c 0.55277,-0.22111 4.75383,-3.703572 4.75383,-3.703572"
       id="path4616"
       inkscape:connector-curvature="0"
       sodipodi:nodetypes="cc" />
    <path
       style="fill:#ffffff;stroke:#000000;stroke-width:1.29999995;stroke-linecap:butt;stroke-linejoin:miter;stroke-miterlimit:4;stroke-dasharray:none;stroke-opacity:1"
       d="m 578.68178,-70.622435 -0.11055,-11.829304 c 0,0 3.09552,-0.994989 3.09552,-9.397111 0,-8.40212 -5.30661,-9.06545 -6.19104,-9.06545 -0.88443,0 -5.85937,0.88444 -5.85937,9.618221 0,8.733785 3.42718,9.065448 3.42718,9.065448 0,0 0,7.738797 0,9.949882 0,2.211085 0.99499,2.874411 2.87441,2.874411 1.87942,0 2.43761,0.0015 2.76385,-1.216097 z"
       id="path4620"
       inkscape:connector-curvature="0" />
    <path
       sodipodi:nodetypes="cc"
       inkscape:connector-curvature="0"
       id="path4624"
       d="m 572.76714,-36.182299 c 0.55277,0.22111 4.75383,3.703572 4.75383,3.703572"
       style="fill:#ffffff;stroke:#000000;stroke-width:1.29999995;stroke-linecap:butt;stroke-linejoin:miter;stroke-miterlimit:4;stroke-dasharray:none;stroke-opacity:1" />
  </g>
  <g
     id="g4792"
     transform="translate(-400.98876,548.94146)">
    <use
       x="0"
       y="0"
       xlink:href="#g4694"
       id="use4744"
       transform="translate(12.19509,-10.944312)"
       width="100%"
       height="100%" />
    <g
       transform="translate(-7.504671,4.690419)"
       id="g4694"
       style="fill:#ffffff">
      <path
         style="fill:#ffffff;stroke:#000000;stroke-width:1.29999995;stroke-linecap:butt;stroke-linejoin:miter;stroke-miterlimit:4;stroke-dasharray:none;stroke-opacity:1"
         d="m 588.79025,-45.454714 c 0,0 0,-16.936825 0.83747,-18.207019 0.83746,-1.270193 4.26766,-1.727651 5.02481,0.211699 2.614,6.69549 19.37251,8.962993 28.5247,-2.987642 4.97084,2.463175 12.4092,5.729789 17.59778,9.637611 5.13326,3.866169 17.58023,0.926413 17.58023,11.345351 z"
         id="path4676"
         inkscape:connector-curvature="0"
         sodipodi:nodetypes="csscscc" />
      <path
         style="fill:#ffffff;stroke:#000000;stroke-width:1.29999995;stroke-miterlimit:4;stroke-dasharray:none"
         d="m 588.79022,-45.454718 h 69.38959 v 4.950178 h -69.38959 z"
         id="path4678"
         inkscape:connector-curvature="0" />
      <g
         id="g4684"
         style="fill:#ffffff;stroke-width:1.29999995;stroke-miterlimit:4;stroke-dasharray:none">
        <path
           sodipodi:nodetypes="cccc"
           inkscape:connector-curvature="0"
           id="path4680"
           d="m 622.94946,-62.228101 3.00667,-4.381062 2.39586,1.347856 -2.43718,3.338172"
           style="fill:#ffffff;stroke:#000000;stroke-width:1.29999995;stroke-linecap:butt;stroke-linejoin:miter;stroke-miterlimit:4;stroke-dasharray:none;stroke-opacity:1" />
        <path
           sodipodi:nodetypes="ccccc"
           inkscape:connector-curvature="0"
           id="path4682"
           d="m 626.2722,-62.320682 c 0,0.495703 -0.84425,0.868234 -1.75308,0.868232 m 0,0 c -0.90883,-1e-6 -1.64558,-0.401846 -1.64558,-0.897547 0,-0.19708 0.11646,-0.379324 0.31388,-0.527378"
           style="fill:#ffffff;stroke:#000000;stroke-width:1.29999995;stroke-miterlimit:4;stroke-dasharray:none" />
      </g>
      <g
         id="use4686"
         style="fill:#ffffff;stroke-width:1.29999995;stroke-miterlimit:4;stroke-dasharray:none"
         transform="translate(5.1131339,2.5980248)">
        <path
           sodipodi:nodetypes="cccc"
           inkscape:connector-curvature="0"
           id="path4702"
           d="m 622.94946,-62.228101 3.00667,-4.381062 2.39586,1.347856 -2.43718,3.338172"
           style="fill:#ffffff;stroke:#000000;stroke-width:1.29999995;stroke-linecap:butt;stroke-linejoin:miter;stroke-miterlimit:4;stroke-dasharray:none;stroke-opacity:1" />
        <path
           sodipodi:nodetypes="ccccc"
           inkscape:connector-curvature="0"
           id="path4704"
           d="m 626.2722,-62.320682 c 0,0.495703 -0.84425,0.868234 -1.75308,0.868232 m 0,0 c -0.90883,-1e-6 -1.64558,-0.401846 -1.64558,-0.897547 0,-0.19708 0.11646,-0.379324 0.31388,-0.527378"
           style="fill:none;stroke:#000000;stroke-width:1.29999995;stroke-miterlimit:4;stroke-dasharray:none" />
      </g>
      <g
         transform="translate(9.9775207,5.2789653)"
         id="use4688"
         style="fill:#ffffff;stroke-width:1.29999995;stroke-miterlimit:4;stroke-dasharray:none">
        <path
           style="fill:#ffffff;stroke:#000000;stroke-width:1.29999995;stroke-linecap:butt;stroke-linejoin:miter;stroke-miterlimit:4;stroke-dasharray:none;stroke-opacity:1"
           d="m 622.94946,-62.228101 3.00667,-4.381062 2.39586,1.347856 -2.43718,3.338172"
           id="path4714"
           inkscape:connector-curvature="0"
           sodipodi:nodetypes="cccc" />
        <path
           style="fill:none;stroke:#000000;stroke-width:1.29999995;stroke-miterlimit:4;stroke-dasharray:none"
           d="m 626.2722,-62.320682 c 0,0.495703 -0.84425,0.868234 -1.75308,0.868232 m 0,0 c -0.90883,-1e-6 -1.64558,-0.401846 -1.64558,-0.897547 0,-0.19708 0.11646,-0.379324 0.31388,-0.527378"
           id="path4716"
           inkscape:connector-curvature="0"
           sodipodi:nodetypes="ccccc" />
      </g>
      <g
         id="use4690"
         transform="translate(15.228847,8.1810142)"
         style="fill:#ffffff;stroke-width:1.29999995;stroke-miterlimit:4;stroke-dasharray:none">
        <path
           sodipodi:nodetypes="cccc"
           inkscape:connector-curvature="0"
           id="path4726"
           d="m 622.94946,-62.228101 3.00667,-4.381062 2.39586,1.347856 -2.43718,3.338172"
           style="fill:#ffffff;stroke:#000000;stroke-width:1.29999995;stroke-linecap:butt;stroke-linejoin:miter;stroke-miterlimit:4;stroke-dasharray:none;stroke-opacity:1" />
        <path
           sodipodi:nodetypes="ccccc"
           inkscape:connector-curvature="0"
           id="path4728"
           d="m 626.2722,-62.320682 c 0,0.495703 -0.84425,0.868234 -1.75308,0.868232 m 0,0 c -0.90883,-1e-6 -1.64558,-0.401846 -1.64558,-0.897547 0,-0.19708 0.11646,-0.379324 0.31388,-0.527378"
           style="fill:none;stroke:#000000;stroke-width:1.29999995;stroke-miterlimit:4;stroke-dasharray:none" />
      </g>
      <g
         transform="translate(21.585716,10.281545)"
         id="use4692"
         style="fill:#ffffff;stroke-width:1.29999995;stroke-miterlimit:4;stroke-dasharray:none">
        <path
           style="fill:#ffffff;stroke:#000000;stroke-width:1.29999995;stroke-linecap:butt;stroke-linejoin:miter;stroke-miterlimit:4;stroke-dasharray:none;stroke-opacity:1"
           d="m 622.94946,-62.228101 3.00667,-4.381062 2.39586,1.347856 -2.43718,3.338172"
           id="path4738"
           inkscape:connector-curvature="0"
           sodipodi:nodetypes="cccc" />
        <path
           style="fill:none;stroke:#000000;stroke-width:1.29999995;stroke-miterlimit:4;stroke-dasharray:none"
           d="m 626.2722,-62.320682 c 0,0.495703 -0.84425,0.868234 -1.75308,0.868232 m 0,0 c -0.90883,-1e-6 -1.64558,-0.401846 -1.64558,-0.897547 0,-0.19708 0.11646,-0.379324 0.31388,-0.527378"
           id="path4740"
           inkscape:connector-curvature="0"
           sodipodi:nodetypes="ccccc" />
      </g>
      <path
         style="fill:#ffffff;stroke:#000000;stroke-width:1.29999995;stroke-linecap:butt;stroke-linejoin:miter;stroke-miterlimit:4;stroke-dasharray:none;stroke-opacity:1"
         d="m 628.35199,-65.261307 c -3.05527,8.609657 -8.35348,8.52671 -12.12072,12.976549 -1.6002,1.89015 -0.90149,6.545547 5.25132,7.683521 6.31864,1.168642 -1.80691,4.426562 -7.951,4.870459 -5.78978,0.418299 -12.16868,0.854996 -15.32067,-1.166892 l 1.43722,4.809112 c -0.38184,0.899839 6.75114,1.065911 14.27119,-0.122588 7.25653,-1.146852 10.90864,-2.330138 12.96392,-6.345062 0.68244,-1.333124 0.50076,-3.326966 -0.64682,-3.869171 -3.38374,-1.59873 -4.17354,-0.319436 -6.24631,-1.934699 -2.57215,-2.00441 2.89519,-4.896782 5.14077,-6.356869 5.76616,-3.74919 5.94954,-10.020109 5.58299,-10.060437 z"
         id="path4746"
         inkscape:connector-curvature="0"
         sodipodi:nodetypes="csssccssssscc" />
    </g>
  </g>
  <g
     style="fill:#ffffff"
     id="g4806"
     transform="translate(-544.16292,552.66853)">
    <path
       style="fill:#ffffff;stroke:#000000;stroke-width:1.29999995;stroke-linecap:butt;stroke-linejoin:miter;stroke-miterlimit:4;stroke-dasharray:none;stroke-opacity:1"
       d="m 672.78639,-64.306807 c 0,-6.885477 0.16861,-8.699346 4.55082,-8.699346 h 22.92257 c 3.70807,0 3.03772,5.413702 3.03772,8.699346 h -6.40868 v 25.22422 h -17.69758 v -25.22422 z"
       id="path4794"
       inkscape:connector-curvature="0"
       sodipodi:nodetypes="csscccccc" />
    <path
       style="fill:#ffffff;stroke:#000000;stroke-width:1.29999995;stroke-linecap:butt;stroke-linejoin:miter;stroke-miterlimit:4;stroke-dasharray:none;stroke-opacity:1"
       d="m 679.48132,-44.664651 h 17.30174"
       id="path4796"
       inkscape:connector-curvature="0" />
    <path
       style="fill:#ffffff;stroke:#000000;stroke-width:1.29999995;stroke-linecap:butt;stroke-linejoin:miter;stroke-miterlimit:4;stroke-dasharray:none;stroke-opacity:1"
       d="m 679.42604,-42.729952 h 17.46757"
       id="path4798"
       inkscape:connector-curvature="0" />
    <path
       style="fill:#ffffff;stroke:#000000;stroke-width:1.29999995;stroke-linecap:butt;stroke-linejoin:miter;stroke-miterlimit:4;stroke-dasharray:none;stroke-opacity:1"
       d="m 679.19124,-64.306807 h 17.69758"
       id="path4800"
       inkscape:connector-curvature="0" />
  </g>
  <g
     transform="matrix(-1,0,0,1,716.77643,2.698862)"
     id="g4848">
    <path
       id="path4822"
       style="fill:none;stroke:#000000;stroke-width:1.29999995;stroke-linecap:butt;stroke-linejoin:miter;stroke-miterlimit:4;stroke-dasharray:none;stroke-opacity:1"
       d="m 503.33665,96.134039 c -0.94233,12.675711 -19.12723,13.878691 -20.7842,12.382071 v 31.50796 l 8.01518,8.01519 m 7.46241,-59.312353 c -11.7155,22.644923 -23.64266,-1.642095 -23.76916,-1.989979 l 0.11056,-11.387088 c 1.10554,-1.547759 4.64327,-2.432193 4.64327,-2.432193 -4.75383,-8.181014 -13.70872,-11.387087 -20.01031,-6.522701 -6.3016,4.864387 0.44221,21.779187 0.44221,21.779187 -3.20607,0.110554 -14.59316,0.994988 -14.37205,8.181016 0,0 -1.60506,13.442051 0.38492,18.527551 m 8.18101,-2.21109 c -2.43219,-4.86439 -0.22111,-12.713738 1.32665,-13.266509 1.54776,-0.552771 5.63827,-0.77388 5.63827,-0.77388 l -0.16381,21.161429 c -3.03116,12.47532 -10.19388,7.38548 -16.25147,6.24632 l -3.9267,15.59785 7.18602,-3.42718 c 0,0 10.06044,2.10053 13.0454,1.10554 2.98497,-0.99498 10.89162,-10.34654 11.88661,-14.65815 m -24.60034,-15.63371 c 0.11055,2.54275 1.54776,4.53272 1.54776,4.53272 m 20.22119,-42.745677 h 1.01625 m 3.69456,8.961647 c -5.41716,0.110554 -10.72376,-1.768868 -11.71875,-9.065448 m 9.83933,53.950468 v 23.32695 l 18.18617,0.0553 m 10.43813,-55.702204 c -0.51423,1.342055 -2.30491,3.852506 -2.30491,3.852506"
       inkscape:connector-curvature="0" />
    <path
       style="fill:none;stroke:#000000;stroke-width:1.29999995;stroke-linecap:butt;stroke-linejoin:miter;stroke-miterlimit:4;stroke-dasharray:none;stroke-opacity:1"
       d="m 469.38406,54.002404 c 2.41676,0.272238 -0.73717,4.924856 -0.73717,4.924856 0,0 -1.80657,-5.313282 0.73717,-4.924856 z"
       id="path4826"
       inkscape:connector-curvature="0" />
    <path
       inkscape:connector-curvature="0"
       id="path4828"
       d="m 447.97388,60.797336 c -1.53103,1.889649 3.98069,2.991945 3.98069,2.991945 0,0 -2.4407,-5.053477 -3.98069,-2.991945 z"
       style="fill:none;stroke:#000000;stroke-width:1.29999995;stroke-linecap:butt;stroke-linejoin:miter;stroke-miterlimit:4;stroke-dasharray:none;stroke-opacity:1" />
    <path
       style="fill:none;stroke:#000000;stroke-width:1.29999995;stroke-linecap:butt;stroke-linejoin:miter;stroke-miterlimit:4;stroke-dasharray:none;stroke-opacity:1"
       d="m 459.00855,54.647562 c -2.35328,0.61393 1.43161,4.769499 1.43161,4.769499 0,0 1.03079,-5.51653 -1.43161,-4.769499 z"
       id="path4830"
       inkscape:connector-curvature="0" />
    <path
       style="fill:none;stroke:#000000;stroke-width:1.29999995;stroke-linecap:butt;stroke-linejoin:miter;stroke-miterlimit:4;stroke-dasharray:none;stroke-opacity:1"
       d="M 452.53495,73.3143 H 436.9468"
       id="path4832"
       inkscape:connector-curvature="0" />
    <path
       style="fill:none;stroke:#000000;stroke-width:1.29999995;stroke-linecap:butt;stroke-linejoin:miter;stroke-miterlimit:4;stroke-dasharray:none;stroke-opacity:1"
       d="m 452.53495,76.40982 h -7.7388"
       id="path4834"
       inkscape:connector-curvature="0" />
    <path
       style="fill:none;stroke:#000000;stroke-width:1.29999995;stroke-linecap:butt;stroke-linejoin:miter;stroke-miterlimit:4;stroke-dasharray:none;stroke-opacity:1"
       d="M 441.47952,96.530691 H 431.19798"
       id="path4836"
       inkscape:connector-curvature="0" />
    <path
       style="fill:none;stroke:#000000;stroke-width:1.29999995;stroke-linecap:butt;stroke-linejoin:miter;stroke-miterlimit:4;stroke-dasharray:none;stroke-opacity:1"
       d="m 441.59008,99.736764 h -3.64829"
       id="path4838"
       inkscape:connector-curvature="0" />
  </g>
  <g
     transform="matrix(-1,0,0,1,600.2677,-1.059978)"
     id="g4862">
    <path
       style="fill:#ffffff;stroke:#000000;stroke-width:1.29999995;stroke-linecap:butt;stroke-linejoin:miter;stroke-miterlimit:4;stroke-dasharray:none;stroke-opacity:1"
       d="m 431.89222,109.61874 -3.40055,5.86302 c 0,0 0.85991,1.01626 0.2736,1.87617 -0.5863,0.85991 -1.56347,0.27361 -1.7589,0 -0.19544,-0.2736 -0.70357,-0.89899 -0.3127,-1.64164 -0.62539,0.93808 -1.91525,1.1726 -2.38429,0.85991 -0.46905,-0.3127 -0.74265,-1.40713 -0.39087,-1.91526 0.35178,-0.50813 1.36804,-0.35178 1.36804,-0.35178 l 3.86959,-6.01937 z"
       id="path4878"
       inkscape:connector-curvature="0" />
    <path
       id="path4890"
       style="fill:#ffffff;stroke:#000000;stroke-width:1.29999995;stroke-linecap:butt;stroke-linejoin:miter;stroke-miterlimit:4;stroke-dasharray:none;stroke-opacity:1"
       d="m 435.92881,74.198732 c 0,0 2.26634,1.381928 2.32164,-1.824145 0.49749,2.155808 4.69855,2.598025 3.75884,-2.045253 0.82916,1.547759 4.31162,-0.331663 2.4322,-3.095519 0.93971,0.552771 2.76385,-0.331663 2.5229,-3.016609 4.43418,0.62154 8.84872,3.750273 11.72517,8.700441 0,0 -3.53773,0.884434 -4.64327,2.432193 l -0.11056,11.387088 c 0.28332,4.460427 0.0756,5.699821 3.55834,6.289588 3.18022,-7.156304 8.12326,-8.504895 10.49674,-9.214556 2.17157,-0.843182 12.37597,0.163275 12.54574,2.464225 3.17531,-0.795623 10.79433,8.377217 11.46573,11.894435 -6.62687,-8.081409 -12.82507,-9.374217 -12.82507,-9.374217 3.26478,-0.238455 9.19519,10.106627 9.25255,13.686887 -5.14046,-9.099464 -11.02452,-11.437577 -11.02452,-11.437577 3.14297,0.915088 5.09327,12.678877 3.89843,16.054377 -1.64434,-10.320895 -6.34359,-14.564247 -6.34359,-14.564247 -4.87179,-3.718135 -13.84232,7.292338 -12.73278,14.813217 v 32.67501 l 8.01518,8.01519 h -37.53316 l 5.12342,-27.32805 c -0.0775,-1.5162 0.0788,-14.49302 0.0788,-14.49302 m 3.28335,-4.53407 c 0,0 -2.73608,1.95434 -6.07016,9.53148 -3.15237,-1.14399 -4.70098,2.91281 -9.17168,-3.96042 2.17534,-5.40365 7.9936,-17.301768 13.16841,-19.081047 0,0 -1.78065,-4.466229 -2.65699,-9.468729 l -0.53566,-4.506672"
       inkscape:connector-curvature="0"
       sodipodi:nodetypes="ccccccccccccccccccccccccccccc" />
    <path
       style="fill:none;stroke:#000000;stroke-width:1.29999995;stroke-linecap:butt;stroke-linejoin:miter;stroke-miterlimit:4;stroke-dasharray:none;stroke-opacity:1"
       d="m 453.93573,79.012065 c -5.24336,0.294975 -9.3159,1.405573 -11.71875,5.417158"
       id="path4858"
       inkscape:connector-curvature="0"
       sodipodi:nodetypes="cc" />
    <path
       style="fill:none;stroke:#000000;stroke-width:1.29999995;stroke-linecap:butt;stroke-linejoin:miter;stroke-miterlimit:4;stroke-dasharray:none;stroke-opacity:1"
       d="m 449.22492,70.810363 h 1.01625"
       id="path4860"
       inkscape:connector-curvature="0"
       sodipodi:nodetypes="cc" />
    <path
       style="fill:none;stroke:#000000;stroke-width:1.29999995;stroke-linecap:butt;stroke-linejoin:miter;stroke-miterlimit:4;stroke-dasharray:none;stroke-opacity:1"
       d="m 446.37619,65.52022 c -1.16082,-1.32665 -3.92468,-1.10554 -3.8694,0 -0.93971,-1.934695 -2.4322,0.05528 -1.38193,1.050269 -2.48747,-0.884433 -3.48246,0.718603 -2.48747,1.713591 -2.87441,-0.884434 -2.04525,1.989977 -1.71359,2.155808 -2.48747,-0.165831 -0.38694,1.437205 -0.38694,1.437205 -1.32665,0.829157 0.77388,3.095519 2.15581,2.929688"
       id="path4880"
       inkscape:connector-curvature="0" />
    <path
       style="fill:none;stroke:#000000;stroke-width:1.29999995;stroke-linecap:butt;stroke-linejoin:miter;stroke-miterlimit:4;stroke-dasharray:none;stroke-opacity:1"
       d="m 443.17011,68.50519 c -1.32665,-0.99499 -2.48747,-0.4975 -2.26636,0.16583"
       id="path4882"
       inkscape:connector-curvature="0" />
    <path
       style="fill:none;stroke:#000000;stroke-width:1.29999995;stroke-linecap:butt;stroke-linejoin:miter;stroke-miterlimit:4;stroke-dasharray:none;stroke-opacity:1"
       d="m 440.24043,70.38461 c -1.60304,-2.10053 -2.32164,-0.49749 -2.21109,-0.0553"
       id="path4886"
       inkscape:connector-curvature="0" />
    <path
       style="fill:none;stroke:#000000;stroke-width:1.29999995;stroke-linecap:butt;stroke-linejoin:miter;stroke-miterlimit:4;stroke-dasharray:none;stroke-opacity:1"
       d="M 452.05631,147.98398 V 124.65703"
       id="path4856"
       inkscape:connector-curvature="0" />
    <path
       inkscape:connector-curvature="0"
       id="path4903"
       d="m 487.11481,111.85412 c 2.41059,0.3223 0.47982,-4.95654 0.47982,-4.95654 0,0 -3.04179,4.71616 -0.47982,4.95654 z"
       style="fill:none;stroke:#000000;stroke-width:1.29999995;stroke-linecap:butt;stroke-linejoin:miter;stroke-miterlimit:4;stroke-dasharray:none;stroke-opacity:1" />
    <path
       inkscape:connector-curvature="0"
       id="path4922"
       d="m 479.97737,122.24707 c 2.40289,0.3754 0.58904,-4.94475 0.58904,-4.94475 0,0 -3.14509,4.64792 -0.58904,4.94475 z"
       style="fill:none;stroke:#000000;stroke-width:1.29999995;stroke-linecap:butt;stroke-linejoin:miter;stroke-miterlimit:4;stroke-dasharray:none;stroke-opacity:1" />
  </g>
  <g
     id="g4946"
     transform="matrix(-1,0,0,1,517.57312,-1.059978)">
    <path
       inkscape:connector-curvature="0"
       id="path4926"
       d="m 431.89222,109.61874 -3.40055,5.86302 c 0,0 0.85991,1.01626 0.2736,1.87617 -0.5863,0.85991 -1.56347,0.27361 -1.7589,0 -0.19544,-0.2736 -0.70357,-0.89899 -0.3127,-1.64164 -0.62539,0.93808 -1.91525,1.1726 -2.38429,0.85991 -0.46905,-0.3127 -0.74265,-1.40713 -0.39087,-1.91526 0.35178,-0.50813 1.36804,-0.35178 1.36804,-0.35178 l 3.86959,-6.01937 z"
       style="fill:#ffffff;stroke:#000000;stroke-width:1.29999995;stroke-linecap:butt;stroke-linejoin:miter;stroke-miterlimit:4;stroke-dasharray:none;stroke-opacity:1" />
    <path
       sodipodi:nodetypes="cccccccccsccscccccccccccsc"
       inkscape:connector-curvature="0"
       d="m 441.19489,101.68412 c 0,0 -2.73608,1.95434 -6.07016,9.53148 -3.15237,-1.14399 -4.70098,2.91281 -9.17168,-3.96042 2.17534,-5.40365 7.9936,-17.301768 13.16841,-19.081047 0,0 -1.78065,-4.466229 -2.65699,-9.468729 l -0.53566,-4.506672 m 1.98273,32.019458 c 0,0 -0.1563,12.97682 -0.0788,14.49302 l -5.12342,27.32805 h 37.53316 l -8.01518,-8.01519 v -32.67501 c -0.17922,-8.813822 3.65148,-17.454354 10.27865,-16.082487 3.27192,0.67731 3.56754,5.179906 3.56754,5.179906 M 435.92881,74.198732 c 0,0 2.26634,1.381928 2.32164,-1.824145 0.49749,2.155808 4.69855,2.598025 3.75884,-2.045253 0.82916,1.547759 4.31162,-0.331663 2.4322,-3.095519 0.93971,0.552771 2.76385,-0.331663 2.5229,-3.016609 4.43418,0.62154 8.84872,3.750273 11.72517,8.700441 0,0 -3.53773,0.884434 -4.64327,2.432193 l -0.11056,11.387088 c 0.28332,4.460427 0.0756,5.699821 3.55834,6.289588 3.18022,-7.156304 8.04737,-9.176908 10.77313,-9.767327 2.85751,-0.61896 11.5945,0.935093 13.596,7.052226 0.62227,1.901839 0.67575,3.855387 0.15148,5.861457"
       style="fill:#ffffff;stroke:#000000;stroke-width:1.29999995;stroke-linecap:butt;stroke-linejoin:miter;stroke-miterlimit:4;stroke-dasharray:none;stroke-opacity:1"
       id="path4928" />
    <path
       sodipodi:nodetypes="cc"
       inkscape:connector-curvature="0"
       id="path4930"
       d="m 453.93573,79.012065 c -5.24336,0.294975 -9.3159,1.405573 -11.71875,5.417158"
       style="fill:none;stroke:#000000;stroke-width:1.29999995;stroke-linecap:butt;stroke-linejoin:miter;stroke-miterlimit:4;stroke-dasharray:none;stroke-opacity:1" />
    <path
       sodipodi:nodetypes="cc"
       inkscape:connector-curvature="0"
       id="path4932"
       d="m 449.22492,70.810363 h 1.01625"
       style="fill:none;stroke:#000000;stroke-width:1.29999995;stroke-linecap:butt;stroke-linejoin:miter;stroke-miterlimit:4;stroke-dasharray:none;stroke-opacity:1" />
    <path
       inkscape:connector-curvature="0"
       id="path4934"
       d="m 446.37619,65.52022 c -1.16082,-1.32665 -3.92468,-1.10554 -3.8694,0 -0.93971,-1.934695 -2.4322,0.05528 -1.38193,1.050269 -2.48747,-0.884433 -3.48246,0.718603 -2.48747,1.713591 -2.87441,-0.884434 -2.04525,1.989977 -1.71359,2.155808 -2.48747,-0.165831 -0.38694,1.437205 -0.38694,1.437205 -1.32665,0.829157 0.77388,3.095519 2.15581,2.929688"
       style="fill:none;stroke:#000000;stroke-width:1.29999995;stroke-linecap:butt;stroke-linejoin:miter;stroke-miterlimit:4;stroke-dasharray:none;stroke-opacity:1" />
    <path
       inkscape:connector-curvature="0"
       id="path4936"
       d="m 443.17011,68.50519 c -1.32665,-0.99499 -2.48747,-0.4975 -2.26636,0.16583"
       style="fill:none;stroke:#000000;stroke-width:1.29999995;stroke-linecap:butt;stroke-linejoin:miter;stroke-miterlimit:4;stroke-dasharray:none;stroke-opacity:1" />
    <path
       inkscape:connector-curvature="0"
       id="path4938"
       d="m 440.24043,70.38461 c -1.60304,-2.10053 -2.32164,-0.49749 -2.21109,-0.0553"
       style="fill:none;stroke:#000000;stroke-width:1.29999995;stroke-linecap:butt;stroke-linejoin:miter;stroke-miterlimit:4;stroke-dasharray:none;stroke-opacity:1" />
    <path
       inkscape:connector-curvature="0"
       id="path4940"
       d="M 452.05631,147.98398 V 124.65703"
       style="fill:none;stroke:#000000;stroke-width:1.29999995;stroke-linecap:butt;stroke-linejoin:miter;stroke-miterlimit:4;stroke-dasharray:none;stroke-opacity:1" />
    <path
       style="fill:none;stroke:#000000;stroke-width:1.29999995;stroke-linecap:butt;stroke-linejoin:miter;stroke-miterlimit:4;stroke-dasharray:none;stroke-opacity:1"
       d="m 479.08317,95.899264 c 0.42996,-1.172605 -0.42995,-3.713249 -0.42995,-3.713249"
       id="path4948"
       inkscape:connector-curvature="0" />
  </g>
  <g
     transform="translate(-452.23242,133.63052)"
     id="g4962">
    <rect
       style="fill:#ffffff;stroke:#000000;stroke-width:1.29999995;stroke-miterlimit:4;stroke-dasharray:none"
       id="rect4950"
       width="5.9216547"
       height="3.2832935"
       x="637.07623"
       y="63.071171" />
    <path
       style="fill:#ffffff;stroke:#000000;stroke-width:1.29999995;stroke-linecap:butt;stroke-linejoin:miter;stroke-miterlimit:4;stroke-dasharray:none;stroke-opacity:1"
       d="M 628.98524,94.770589 V 69.442324 c 0,-2.312805 -7.8763,-6.338786 -11.5697,5.706677 l -1.13859,0.156348 c 0.3515,-2.641275 0.81601,-7.119691 3.5132,-9.794434 2.55802,-2.465968 5.17974,-4.585867 9.74231,-5.214909 4.10438,-0.56587 6.72293,1.407126 6.72293,1.407126 l 1.87617,0.07817 v 5.784851 h -1.56347 c -0.0911,0.300712 -1.88162,0.382657 -2.9114,2.970598 v 24.78105 z"
       id="path4952"
       inkscape:connector-curvature="0"
       sodipodi:nodetypes="cscccsccccccc" />
    <path
       style="fill:#ffffff;stroke:#000000;stroke-width:1.29999995;stroke-linecap:butt;stroke-linejoin:miter;stroke-miterlimit:4;stroke-dasharray:none;stroke-opacity:1"
       d="m 627.73446,95.474152 c 0,-4.143204 6.87928,-3.973164 6.87928,-0.07817 0,6.394138 0.23453,29.315118 0.23453,31.816678 0,2.50155 -0.54722,2.26703 -1.64165,2.26703 h -4.76859 c -1.56348,0 -1.08078,0.008 -1.08078,-1.87196 0,-1.88037 0.37721,-32.133574 0.37721,-32.133574 z"
       id="path4954"
       inkscape:connector-curvature="0"
       sodipodi:nodetypes="scsssscs" />
    <rect
       style="fill:#ffffff;stroke:#000000;stroke-width:1.29999995;stroke-miterlimit:4;stroke-dasharray:none"
       id="rect4956"
       width="3.9246757"
       height="5.8040977"
       x="642.65186"
       y="61.806946" />
    <path
       style="fill:#ffffff;stroke:#000000;stroke-width:1.29999995;stroke-linecap:butt;stroke-linejoin:miter;stroke-miterlimit:4;stroke-dasharray:none;stroke-opacity:1"
       d="m 629.10893,70.982947 h 4.47745"
       id="path4958"
       inkscape:connector-curvature="0" />
    <path
       inkscape:connector-curvature="0"
       id="path4960"
       d="m 629.10893,73.774442 h 4.47745"
       style="fill:#ffffff;stroke:#000000;stroke-width:1.29999995;stroke-linecap:butt;stroke-linejoin:miter;stroke-miterlimit:4;stroke-dasharray:none;stroke-opacity:1" />
  </g>
  <g
     id="g5006"
     transform="translate(-566.99134,281.84777)">
    <path
       sodipodi:nodetypes="csscccczscc"
       inkscape:connector-curvature="0"
       id="path4964"
       d="m 777.10571,-16.275269 c 0,-1.930991 -0.73144,-25.526324 -0.58883,-28.396824 0.33596,-6.762464 0.56112,-15.884299 2.37452,-20.402316 0.79603,-1.983269 0.62061,-5.359652 0.13511,-7.392053 0.5805,-3.359456 2.30738,-5.630044 5.56586,-6.074254 v -13.708727 c 5.5793,1.881527 8.44676,9.279851 5.35124,17.903082 -0.34932,2.306833 -1.42158,4.186689 -2.93246,5.637115 -1.51088,1.450427 -6.6686,11.574539 -7.33686,23.712306 -0.13555,2.462024 0.7294,26.038352 0.74804,28.611117 z"
       style="fill:#ffffff;stroke:#000000;stroke-width:1.29999995;stroke-linecap:butt;stroke-linejoin:miter;stroke-miterlimit:4;stroke-dasharray:none;stroke-opacity:1" />
    <path
       sodipodi:nodetypes="cccc"
       inkscape:connector-curvature="0"
       id="path4966"
       d="m 784.81348,-80.751801 c 0.66332,-0.110554 3.09551,1.768868 3.09551,1.768868 0.22111,-6.301592 0.33167,-7.849352 -3.31662,-13.26651 z"
       style="fill:#ffffff;stroke:#000000;stroke-width:1.29999995;stroke-linecap:butt;stroke-linejoin:round;stroke-miterlimit:4;stroke-dasharray:none;stroke-opacity:1" />
    <circle
       r="2.5703862"
       cy="-73.589485"
       cx="784.69696"
       id="path4978"
       style="fill:#ffffff;stroke:#000000;stroke-width:1.29999995;stroke-linejoin:round;stroke-miterlimit:4;stroke-dasharray:none" />
    <use
       height="100%"
       width="100%"
       transform="matrix(-1,0,0,1,1568.1633,0)"
       id="use4994"
       xlink:href="#path4964"
       y="0"
       x="0" />
    <use
       height="100%"
       width="100%"
       transform="matrix(-1,0,0,1,1567.9319,0)"
       id="use4996"
       xlink:href="#path4966"
       y="0"
       x="0" />
    <use
       height="100%"
       width="100%"
       transform="matrix(-1,0,0,1,1567.9319,0)"
       id="use4998"
       xlink:href="#path4978"
       y="0"
       x="0" />
  </g>
  <g
     id="g5035"
     transform="translate(-523.74482,405.24407)">
    <rect
       y="-51.961346"
       x="816.28931"
       height="20.168804"
       width="56.597725"
       id="rect5008"
       style="fill:#000000;stroke:#000000;stroke-width:1.29999995;stroke-linejoin:round;stroke-miterlimit:4;stroke-dasharray:none" />
    <ellipse
       ry="10.084412"
       rx="28.298859"
       cy="-41.876934"
       cx="844.5882"
       id="path5010"
       style="fill:#ffffff;stroke:none;stroke-width:1.29999995;stroke-linejoin:round;stroke-miterlimit:4;stroke-dasharray:none" />
    <text
       id="text5014"
       y="-36.935589"
       x="821.21564"
       style="font-style:normal;font-weight:normal;font-size:40px;line-height:1.25;font-family:sans-serif;letter-spacing:0px;word-spacing:0px;fill:#000000;fill-opacity:1;stroke:none"
       xml:space="preserve"><tspan
         style="font-style:normal;font-variant:normal;font-weight:normal;font-stretch:normal;font-size:12px;font-family:Impact;-inkscape-font-specification:Impact"
         y="-36.935589"
         x="821.21564"
         id="tspan5012"
         sodipodi:role="line">CRAMONT</tspan></text>
  </g>
  <text
     xml:space="preserve"
     style="font-style:normal;font-weight:normal;font-size:16px;line-height:1.25;font-family:sans-serif;letter-spacing:0px;word-spacing:0px;fill:#000000;fill-opacity:1;stroke:none"
     x="356.50769"
     y="372.13046"
     id="text5077"><tspan
       sodipodi:role="line"
       id="tspan5075"
       x="356.50769"
       y="372.13046"
       style="font-size:12px">12x</tspan></text>
  <text
     id="text5081"
     y="391.95932"
     x="-371.92441"
     style="font-style:normal;font-weight:normal;font-size:16px;line-height:1.25;font-family:sans-serif;letter-spacing:0px;word-spacing:0px;fill:#000000;fill-opacity:1;stroke:none"
     xml:space="preserve"
     transform="rotate(-90)"><tspan
       style="font-size:4.66666651px"
       y="391.95932"
       x="-371.92441"
       id="tspan5079"
       sodipodi:role="line">12974066</tspan></text>
  <path
     sodipodi:nodetypes="cccccc"
     inkscape:connector-curvature="0"
     id="path5085"
     d="m 53.950472,410.99253 39.136208,13.0454 0.88443,90.43337 -4.86439,2.6533 -40.020635,-103.47877 z"
     style="fill:#d1d2d4;fill-opacity:1;stroke:#000000;stroke-width:1.29999995;stroke-linecap:butt;stroke-linejoin:miter;stroke-miterlimit:4;stroke-dasharray:none;stroke-opacity:1" />
  <path
     style="fill:#d1d2d4;fill-opacity:1;stroke:#000000;stroke-width:1.29999995;stroke-linecap:butt;stroke-linejoin:miter;stroke-miterlimit:4;stroke-dasharray:none;stroke-opacity:1"
     d="m 49.086085,413.64583 39.136205,13.0454 0.88443,90.43337 -38.693983,-15.25649 z"
     id="path5083"
     inkscape:connector-curvature="0"
     sodipodi:nodetypes="ccccc" />
  <path
     style="fill:none;stroke:#000000;stroke-width:1.29999995;stroke-linecap:butt;stroke-linejoin:miter;stroke-miterlimit:4;stroke-dasharray:none;stroke-opacity:1"
     d="m 93.08668,424.03793 -4.86439,2.6533"
     id="path5087"
     inkscape:connector-curvature="0" />
  <ellipse
     style="fill:#000000;fill-opacity:1;stroke:none;stroke-width:1.29999995;stroke-linejoin:round;stroke-miterlimit:4;stroke-dasharray:none"
     id="path5089"
     cx="64.22049"
     cy="502.42044"
     rx="1.5634731"
     ry="2.1106887" />
  <ellipse
     ry="2.1106887"
     rx="1.5634731"
     cy="505.54739"
     cx="72.037857"
     id="ellipse5091"
     style="fill:#000000;fill-opacity:1;stroke:none;stroke-width:1.29999995;stroke-linejoin:round;stroke-miterlimit:4;stroke-dasharray:none" />
  <g
     id="g5111"
     transform="translate(223.29316,-280.39549)">
    <path
       sodipodi:nodetypes="ccccccccsccc"
       inkscape:connector-curvature="0"
       d="m 195.20221,637.26472 c 0,0 13.01313,-5.64191 13.71669,-6.03278 0.70356,-0.39087 2.34521,-2.03252 2.18886,-2.73608 -0.15634,-0.70356 -3.36146,-0.54721 -4.84676,-0.15635 -1.4853,0.39087 -16.26012,8.75545 -16.26012,8.75545 -2.75152,5.49343 -5.26476,5.02971 -7.81737,5.55033 l 5.08129,10.55345 m 0,0 c 0.31269,-0.15635 0.93808,-1.64165 1.71982,-1.95434 0.78174,-0.3127 3.43964,1.1726 4.76859,0.39086 1.32895,-0.78173 6.56659,-3.43964 8.44276,-4.61224 -1.2912,-3.91724 -0.75785,-9.00018 -6.99376,-9.7583"
       style="fill:#ffffff;stroke:#000000;stroke-width:1.29999995;stroke-linecap:butt;stroke-linejoin:miter;stroke-miterlimit:4;stroke-dasharray:none;stroke-opacity:1"
       id="path5101" />
    <path
       sodipodi:nodetypes="cccsscc"
       inkscape:connector-curvature="0"
       id="path5097"
       d="m 202.82136,638.65844 c 2.03251,0.39087 2.03251,2.42338 1.87616,2.81425 -0.15634,0.39086 -2.26703,1.32895 -2.73607,1.87616 -0.46905,0.54722 -1.95435,0.3127 -2.57973,0.3127 -0.62539,0 -1.71983,-1.56347 -0.62539,-2.50156 1.09443,-0.93808 1.95434,-2.97059 1.95434,-2.97059 z"
       style="fill:#ffffff;stroke:#000000;stroke-width:1.29999995;stroke-linecap:butt;stroke-linejoin:miter;stroke-miterlimit:4;stroke-dasharray:none;stroke-opacity:1" />
    <path
       inkscape:connector-curvature="0"
       id="path5093"
       d="m 182.18351,642.64529 c 3.67416,0.0782 3.51782,-2.57973 4.29955,-3.75233 0.78174,-1.17261 6.09755,-3.2833 8.13006,-3.2833 2.03252,0 8.9118,1.4853 8.5991,2.65791 -0.31269,1.1726 -3.43964,1.64165 -4.37772,1.40712 -0.93808,-0.23452 -3.12695,-0.85991 -3.59599,-0.31269 -0.46904,0.54722 -1.95434,2.73608 -2.89242,3.36147 -0.93809,0.62539 -3.75234,1.64164 -3.75234,1.64164"
       style="fill:#ffffff;stroke:#000000;stroke-width:1.29999995;stroke-linecap:butt;stroke-linejoin:miter;stroke-miterlimit:4;stroke-dasharray:none;stroke-opacity:1" />
    <path
       sodipodi:nodetypes="cccccc"
       inkscape:connector-curvature="0"
       id="path5099"
       d="m 201.96145,643.34885 c 4.23904,-2.12151 3.31509,0.071 2.89242,1.25078 -0.0782,0.85992 -2.34521,1.798 -2.6579,2.18887 -0.3127,0.39087 -2.89243,0.15634 -2.81425,-0.39087 0.98743,-1.66877 2.74099,-0.85663 0.85991,-2.11069 z"
       style="fill:#ffffff;stroke:#000000;stroke-width:1.29999995;stroke-linecap:butt;stroke-linejoin:miter;stroke-miterlimit:4;stroke-dasharray:none;stroke-opacity:1" />
    <path
       sodipodi:nodetypes="cc"
       inkscape:connector-curvature="0"
       id="path5103"
       d="m 197.03651,639.28383 c 0.62968,3.04691 0.4574,5.80221 2.56008,9.38476"
       style="fill:#ffffff;stroke:#000000;stroke-width:1.29999995;stroke-linecap:butt;stroke-linejoin:miter;stroke-miterlimit:4;stroke-dasharray:none;stroke-opacity:1" />
  </g>
  <text
     xml:space="preserve"
     style="font-style:normal;font-weight:normal;font-size:160px;line-height:1.25;font-family:sans-serif;letter-spacing:0px;word-spacing:0px;fill:#000000;fill-opacity:1;stroke:none"
     x="38.547035"
     y="374.00528"
     id="text5317"><tspan
       sodipodi:role="line"
       id="tspan5315"
       x="38.547035"
       y="374.00528"
       style="font-style:normal;font-variant:normal;font-weight:normal;font-stretch:normal;font-size:100px;font-family:'Franklin Gothic Medium';-inkscape-font-specification:'Franklin Gothic Medium, '">TITRE</tspan></text>
  <text
     xml:space="preserve"
     style="font-style:normal;font-weight:normal;font-size:16px;line-height:1.25;font-family:sans-serif;letter-spacing:0px;word-spacing:0px;fill:#000000;fill-opacity:1;stroke:none"
     x="418.77948"
     y="415.85693"
     id="text5339"><tspan
       sodipodi:role="line"
       id="tspan5337"
       x="418.77948"
       y="415.85693">Références de pièce</tspan></text>
  <text
     id="text5343"
     y="438.8522"
     x="418.77948"
     style="font-style:normal;font-weight:normal;font-size:16px;line-height:1.25;font-family:sans-serif;letter-spacing:0px;word-spacing:0px;fill:#000000;fill-opacity:1;stroke:none"
     xml:space="preserve"><tspan
       y="438.8522"
       x="418.77948"
       id="tspan5341"
       sodipodi:role="line">Nombre de pièces</tspan></text>
  <path
     style="fill:none;stroke:#000000;stroke-width:1px;stroke-linecap:butt;stroke-linejoin:miter;stroke-opacity:1"
     d="M 417.89505,410.55034 390.91981,376.05742"
     id="path5345"
     inkscape:connector-curvature="0" />
  <path
     style="fill:none;stroke:#000000;stroke-width:1px;stroke-linecap:butt;stroke-linejoin:miter;stroke-opacity:1"
     d="m 416.12618,429.12345 -45.54835,-49.5283"
     id="path5347"
     inkscape:connector-curvature="0" />
</svg>
